<mxfile host="app.diagrams.net" modified="2023-01-03T07:00:59.390Z" agent="5.0 (Macintosh; Intel Mac OS X 10_15_7) AppleWebKit/537.36 (KHTML, like Gecko) Chrome/108.0.0.0 Safari/537.36" version="20.7.4" etag="R1ZpWdOXTDrK3w_l0Nu7" type="github">
  <diagram id="vL_ZW2GjzOR5XGSFY2h0" name="第 1 页">
    <mxGraphModel dx="954" dy="616" grid="1" gridSize="10" guides="1" tooltips="1" connect="1" arrows="1" fold="1" page="1" pageScale="1" pageWidth="827" pageHeight="1169" math="0" shadow="0">
      <root>
        <mxCell id="0" />
        <mxCell id="1" parent="0" />
        <mxCell id="IfTZV-X-oj_eFWKhyQgy-1" value="" style="rounded=0;whiteSpace=wrap;html=1;fillColor=#dae8fc;strokeColor=#6c8ebf;strokeWidth=2;" vertex="1" parent="1">
          <mxGeometry x="50" y="190" width="210" height="150" as="geometry" />
        </mxCell>
        <mxCell id="IfTZV-X-oj_eFWKhyQgy-2" value="&lt;font style=&quot;font-size: 14px;&quot;&gt;spark-submit&lt;/font&gt;" style="text;html=1;strokeColor=none;fillColor=none;align=center;verticalAlign=middle;whiteSpace=wrap;rounded=0;strokeWidth=2;" vertex="1" parent="1">
          <mxGeometry x="110" y="206" width="90" height="20" as="geometry" />
        </mxCell>
        <mxCell id="IfTZV-X-oj_eFWKhyQgy-3" value="yarn client" style="rounded=0;whiteSpace=wrap;html=1;strokeWidth=2;fillColor=#d5e8d4;strokeColor=#82b366;" vertex="1" parent="1">
          <mxGeometry x="72.5" y="240" width="165" height="85" as="geometry" />
        </mxCell>
        <mxCell id="IfTZV-X-oj_eFWKhyQgy-4" value="" style="rounded=0;whiteSpace=wrap;html=1;strokeWidth=2;fillColor=#f5f5f5;fontColor=#333333;strokeColor=#666666;" vertex="1" parent="1">
          <mxGeometry x="330" y="90" width="600" height="520" as="geometry" />
        </mxCell>
        <mxCell id="IfTZV-X-oj_eFWKhyQgy-5" value="&lt;font style=&quot;font-size: 14px;&quot;&gt;yarn cluster&lt;/font&gt;" style="text;html=1;strokeColor=none;fillColor=none;align=center;verticalAlign=middle;whiteSpace=wrap;rounded=0;strokeWidth=2;" vertex="1" parent="1">
          <mxGeometry x="338" y="96" width="90" height="30" as="geometry" />
        </mxCell>
        <mxCell id="IfTZV-X-oj_eFWKhyQgy-6" value="" style="rounded=0;whiteSpace=wrap;html=1;strokeWidth=2;fontSize=14;fillColor=#ffe6cc;strokeColor=#d79b00;" vertex="1" parent="1">
          <mxGeometry x="570" y="150" width="320" height="160" as="geometry" />
        </mxCell>
        <mxCell id="IfTZV-X-oj_eFWKhyQgy-8" value="" style="rounded=0;whiteSpace=wrap;html=1;strokeWidth=2;fontSize=14;fillColor=#ffe6cc;strokeColor=#d79b00;" vertex="1" parent="1">
          <mxGeometry x="570" y="370" width="310" height="180" as="geometry" />
        </mxCell>
        <mxCell id="IfTZV-X-oj_eFWKhyQgy-9" value="ResourceManager" style="rounded=0;whiteSpace=wrap;html=1;strokeWidth=3;fontSize=14;fillColor=#ffe6cc;strokeColor=#d79b00;" vertex="1" parent="1">
          <mxGeometry x="370" y="260" width="140" height="153.75" as="geometry" />
        </mxCell>
        <mxCell id="IfTZV-X-oj_eFWKhyQgy-10" value="NodeManager" style="text;html=1;strokeColor=none;fillColor=none;align=center;verticalAlign=middle;whiteSpace=wrap;rounded=0;strokeWidth=3;fontSize=14;" vertex="1" parent="1">
          <mxGeometry x="590" y="150" width="60" height="30" as="geometry" />
        </mxCell>
        <mxCell id="IfTZV-X-oj_eFWKhyQgy-11" value="NodeManager" style="text;html=1;strokeColor=none;fillColor=none;align=center;verticalAlign=middle;whiteSpace=wrap;rounded=0;strokeWidth=3;fontSize=14;" vertex="1" parent="1">
          <mxGeometry x="590" y="370" width="60" height="30" as="geometry" />
        </mxCell>
        <mxCell id="IfTZV-X-oj_eFWKhyQgy-12" value="" style="rounded=0;whiteSpace=wrap;html=1;strokeWidth=3;fontSize=14;fillColor=#dae8fc;strokeColor=#6c8ebf;" vertex="1" parent="1">
          <mxGeometry x="590" y="190" width="280" height="100" as="geometry" />
        </mxCell>
        <mxCell id="IfTZV-X-oj_eFWKhyQgy-13" value="" style="rounded=0;whiteSpace=wrap;html=1;strokeWidth=3;fontSize=14;fillColor=#dae8fc;strokeColor=#6c8ebf;" vertex="1" parent="1">
          <mxGeometry x="620" y="419.75" width="220" height="110" as="geometry" />
        </mxCell>
        <mxCell id="IfTZV-X-oj_eFWKhyQgy-14" value="ApplicationMaster" style="text;html=1;strokeColor=none;fillColor=none;align=center;verticalAlign=middle;whiteSpace=wrap;rounded=0;strokeWidth=3;fontSize=14;" vertex="1" parent="1">
          <mxGeometry x="672.5" y="190" width="60" height="30" as="geometry" />
        </mxCell>
        <mxCell id="IfTZV-X-oj_eFWKhyQgy-15" value="ExecutorBackend" style="text;html=1;strokeColor=none;fillColor=none;align=center;verticalAlign=middle;whiteSpace=wrap;rounded=0;strokeWidth=3;fontSize=14;" vertex="1" parent="1">
          <mxGeometry x="700" y="419.75" width="60" height="30" as="geometry" />
        </mxCell>
        <mxCell id="IfTZV-X-oj_eFWKhyQgy-16" value="RMClient" style="rounded=0;whiteSpace=wrap;html=1;strokeWidth=2;fontSize=14;fillColor=#f8cecc;strokeColor=#b85450;" vertex="1" parent="1">
          <mxGeometry x="600" y="230" width="80" height="50" as="geometry" />
        </mxCell>
        <mxCell id="IfTZV-X-oj_eFWKhyQgy-17" value="Driver" style="rounded=0;whiteSpace=wrap;html=1;strokeWidth=2;fontSize=14;fillColor=#f8cecc;strokeColor=#b85450;" vertex="1" parent="1">
          <mxGeometry x="690" y="230" width="80" height="50" as="geometry" />
        </mxCell>
        <mxCell id="IfTZV-X-oj_eFWKhyQgy-18" value="NMClient" style="rounded=0;whiteSpace=wrap;html=1;strokeWidth=2;fontSize=14;fillColor=#f8cecc;strokeColor=#b85450;" vertex="1" parent="1">
          <mxGeometry x="780" y="230" width="80" height="50" as="geometry" />
        </mxCell>
      </root>
    </mxGraphModel>
  </diagram>
</mxfile>
